<svg class="w-full h-full" xmlns="http://www.w3.org/2000/svg" viewBox="0 0 188 256">
	<path d="M177.36,171.38L116.5,74l45-72H26.49l45,72l-60.86,97.38c-6.79,10.86-9.16,22.69-8.01,33.92
	c2.66,25.96,24.19,48.7,53.8,48.7h77.7l0.08-0.07C175.04,252.05,199.38,206.6,177.36,171.38z M115.37,195.06
	C102.43,208,83.7,210.57,71.4,201.94C66.44,206.81,60.84,217,60.84,217l-8.53-1.01c15.42-22.02,30.19-37.26,52.67-53.24
	c-0.96,0.44-31.8,14.67-41.29,30.75c-6.98-12.3-3.95-29.56,8.26-41.77c7.9-7.9,21.39-9.92,35.9-11.2
	c15.42-1.29,25.24-7.53,25.24-7.53S129.6,180.92,115.37,195.06z" />
</svg>